<?xml version="1.0" encoding="utf-8"?>
<!-- Generator: Adobe Illustrator 20.1.0, SVG Export Plug-In . SVG Version: 6.00 Build 0)  -->
<svg version="1.1" xmlns="http://www.w3.org/2000/svg" xmlns:xlink="http://www.w3.org/1999/xlink" x="0px" y="0px"
	 viewBox="0 0 97.6 97.7" style="enable-background:new 0 0 97.6 97.7;" xml:space="preserve">
<style type="text/css">
	.st0{display:none;}
	.st1{display:inline;}
	.st2{display:inline;fill:none;stroke:#FFFFFF;stroke-width:2.5383;stroke-miterlimit:10;}
	.st3{fill:none;stroke:#FFFFFF;stroke-width:2.5383;stroke-miterlimit:10;}
</style>
<g id="architect" class="st0">
	<g class="st1">
		<path d="M6,51l4.2-3v44.3h77.3V48l4.2,3l6-10.9L48.8,5.4l-17,12.1v-5.3H16.6v16.1L0,40.1L6,51L6,51z M81.6,86.5H70.7V63.2H53.8
			v23.3H16V45.1l32.7-23.2l32.9,23.2V86.5z"/>
		<rect x="25.5" y="46.6" width="16.2" height="16.2"/>
	</g>
</g>
<g id="awards" class="st0">
	<g class="st1">
		<path d="M16.7,59.3c0.6,1.8,1.4,3.6,2.2,5.2c-0.7-0.6-1.4-1-2.2-1.4c-4.3-1.9-9.4,0.2-9.4,0.2s1.9,5.2,6.2,7.1
			c3.9,1.7,8.4,0.2,9.3-0.1c1,1.2,2.1,2.3,3.2,3.3c-0.8-0.3-1.7-0.5-2.7-0.5c-4.7-0.2-8.7,3.6-8.7,3.6s3.7,4.1,8.4,4.3
			c4.1,0.2,7.7-2.8,8.5-3.5c1.8,1,3.8,1.8,5.8,2.3l0.9-3.4c-1.3-0.3-2.5-0.8-3.7-1.3c1.4-1,2.9-2.5,3.7-4.5c1.8-4.3-0.3-9.4-0.3-9.4
			s-5.1,2-7,6.3c-0.7,1.7-0.8,3.5-0.7,5.1c-1.4-1-2.7-2.2-3.9-3.5c1.6-0.9,3.4-2.3,4.5-4.3c2.2-4.2,0.5-9.4,0.5-9.4
			s-5.3,1.5-7.5,5.7c-0.6,1.1-0.9,2.2-1,3.3c-1-1.7-1.9-3.5-2.6-5.5c1.9-0.5,4.4-1.5,6.2-3.6c3-3.6,2.5-9.1,2.5-9.1s-5.5,0.4-8.5,4
			c-0.7,0.9-1.3,1.9-1.6,2.9c-0.3-1.9-0.5-3.9-0.5-5.9c0-0.2,0-0.4,0-0.6c1.8-0.1,5.3-0.6,7.8-2.9c3.5-3.2,3.5-8.7,3.5-8.7
			s-5.5-0.3-9,2.9c-0.7,0.6-1.2,1.3-1.6,2c0.6-2.6,1.4-5.1,2.5-7.4c1.5,0.5,5.4,1.4,8.8-0.2c4.3-2,6.1-7.2,6.1-7.2s-5.1-2-9.4,0
			c-0.3,0.1-0.6,0.3-0.9,0.5c1.5-1.7,3.2-3.2,5-4.4c1.7,0.3,3.9,0.4,5.9-0.4c4.4-1.7,6.5-6.8,6.5-6.8s-5-2.3-9.4-0.5
			c-3,1.2-4.9,3.9-5.8,5.5c-1.3,0.9-2.5,2-3.7,3.1c0.3-4-1.9-7.6-1.9-7.6s-4.8,2.7-6,7.2c-1.2,4.6,1.6,9.3,1.6,9.3s0,0,0.1,0
			c-0.8,1.6-1.5,3.3-2,5.1c-1.4-4.3-5.9-6.9-5.9-6.9S7.6,34,8.8,38.5c1.1,4.1,5.2,6.7,5.9,7.1c0,0.5-0.1,1-0.1,1.6
			c0,1.4,0.1,2.7,0.2,4.1c-0.2-0.3-0.5-0.7-0.8-1c-3.1-3.5-8.6-3.8-8.6-3.8s-0.4,5.5,2.7,9C11,58.7,15.7,59.2,16.7,59.3z"/>
		<path d="M81.2,36.1c-0.5-1.8-1.2-3.5-2-5.1c0,0,0.1,0,0.1,0s2.8-4.7,1.6-9.3c-1.2-4.6-6-7.2-6-7.2s-2.2,3.6-1.9,7.6
			C71.8,21,70.6,20,69.3,19c-0.9-1.6-2.8-4.4-5.8-5.5c-4.4-1.7-9.4,0.5-9.4,0.5s2.1,5.1,6.5,6.8c2,0.8,4.2,0.7,5.9,0.4
			c1.8,1.2,3.5,2.7,5,4.4c-0.3-0.2-0.6-0.3-0.9-0.5c-4.3-2-9.4,0-9.4,0s1.8,5.2,6.1,7.2c3.4,1.6,7.3,0.6,8.8,0.2
			c1.1,2.3,2,4.7,2.5,7.3c-0.4-0.7-1-1.4-1.6-2c-3.5-3.2-9-2.9-9-2.9s0.1,5.5,3.5,8.7c2.5,2.3,6,2.8,7.8,2.9c0,0.2,0,0.4,0,0.6
			c0,2-0.2,4-0.5,5.9c-0.4-1-0.9-2-1.6-2.9c-3-3.6-8.5-4-8.5-4s-0.6,5.5,2.5,9.1c1.7,2.1,4.3,3.1,6.2,3.6c-0.7,1.9-1.6,3.8-2.6,5.5
			c-0.1-1.1-0.5-2.2-1-3.3c-2.2-4.2-7.5-5.7-7.5-5.7s-1.7,5.2,0.5,9.4c1.1,2,2.9,3.4,4.5,4.3c-1.2,1.3-2.5,2.5-3.9,3.5
			c0.1-1.6,0-3.4-0.7-5.1c-1.8-4.3-7-6.3-7-6.3s-2.2,5.1-0.3,9.4c0.8,2,2.3,3.4,3.7,4.5c-1.2,0.5-2.4,1-3.7,1.3l0.9,3.4
			c2-0.6,4-1.3,5.8-2.3c0.8,0.7,4.4,3.6,8.5,3.5c4.7-0.2,8.4-4.3,8.4-4.3s-4-3.8-8.7-3.6c-0.9,0-1.8,0.2-2.7,0.5
			c1.1-1,2.2-2.1,3.2-3.3c0.8,0.3,5.4,1.8,9.3,0.1c4.3-1.9,6.2-7.1,6.2-7.1s-5.1-2.1-9.4-0.2c-0.8,0.4-1.6,0.9-2.2,1.4
			c0.9-1.7,1.6-3.4,2.2-5.2c1-0.1,5.6-0.6,8.4-3.7c3.1-3.5,2.7-9,2.7-9s-5.5,0.2-8.6,3.8c-0.3,0.3-0.5,0.7-0.8,1
			c0.1-1.3,0.2-2.7,0.2-4.1c0-0.5,0-1.1-0.1-1.6c0.7-0.4,4.8-3,5.9-7.1c1.2-4.6-1.6-9.3-1.6-9.3S82.6,31.8,81.2,36.1z"/>
		<circle cx="48.8" cy="78.7" r="6.2"/>
	</g>
</g>
<g id="interiors" class="st0">
	<path class="st1" d="M80,15.3c-0.7-0.8-1.8-1.5-3-1.5c0,0,0,0-0.1,0c0,0,0,0-0.1,0v0c0,0,0,0,0,0c0,0,0,0,0,0v0
		c-0.2,0-0.4,0-0.6,0.1l-43.7-0.2c-6.6,0-8.8,4.4-9.3,10.4h-0.1h-3c-3.1,0-5.7,2.4-5.7,5.6v0.1l1,9.6c0.1,1.4,0.6,2.6,1.3,3.6
		c0.7,1.1,1.7,2,3.1,2.6l28.1,11.6c0.1,0,0.3,0.2,0.5,0.5c0.2,0.3,0.2,0.6,0.2,0.6v2.1h5.8v-2.1c0-1.5-0.5-2.8-1.3-3.8
		c-0.7-1.1-1.7-2-3.1-2.6L22,40.1c-0.1,0-0.3-0.2-0.5-0.5c-0.2-0.3-0.2-0.6-0.2-0.6v-0.1l-0.9-9.1h2.9c0.5,5.8,3,10.2,9.5,10.2
		L76,40.2l1.6,0c0.9-0.2,1.7-0.8,2.3-1.4c2.2-2.5,3.2-6.7,3.3-11.7v0v0c0,0,0,0,0-0.1c0-0.5,0-1,0-1.4c-0.1-2.7-0.6-5.2-1.4-7.2
		C81.3,17.1,80.8,16.1,80,15.3z M74.3,27.1L74.3,27.1L74.3,27.1c0-3,0.5-5.7,1.2-7.5c0.3-0.9,0.8-1.5,1.1-1.9
		c0.1-0.1,0.2-0.2,0.3-0.3c0,0,0,0,0.1,0c0.4,0.2,1.1,1.4,1.6,3.1c0.2,0.8,0.4,1.7,0.6,2.7c-0.1-0.1-0.3-0.2-0.4-0.2
		c-0.8,0-1.5,1.8-1.6,3.9s0.7,3.9,1.5,3.9c0.1,0,0.3-0.1,0.4-0.2c-0.2,1.4-0.5,2.7-0.9,3.6c-0.3,0.9-0.8,1.5-1.1,1.9
		c-0.1,0.1-0.2,0.2-0.3,0.2c0,0,0,0-0.1,0c-0.4-0.2-1.1-1.4-1.6-3.1C74.6,31.8,74.3,29.6,74.3,27.1C74.3,27.1,74.3,27.1,74.3,27.1z"
		/>
	<path class="st1" d="M48.1,65.6c-0.4,0-0.7,0.1-0.9,0.3c-0.2,0.2-0.2,0.2-0.2,0.3v23.8c0,0,0,0.1,0.2,0.3c0.2,0.1,0.5,0.3,0.9,0.3
		h6.7c0.4,0,0.7-0.1,0.9-0.3c0.2-0.2,0.2-0.2,0.2-0.3V66.2c0,0,0-0.1-0.2-0.3c-0.2-0.1-0.5-0.3-0.9-0.3H48.1z"/>
</g>
<g id="builder" class="st0">
	<g class="st1">
		<path d="M35.4,37.3l11.9,12.6c0.2-0.1,0.5-0.3,0.7-0.5c1.6-1.2,3.8-3.9,6.4-9L43.1,29.5L35.4,37.3z"/>
		<path d="M71.8,78l0.3,0.4c1.1,1.1,3,1.2,4,0.1l5.4-5.4c1.1-1.1,1.1-2.9-0.1-4l-3.2-3.1L77.4,65C77.3,68.3,75.1,73.2,71.8,78z"/>
		<path d="M46.1,32.6c-1.7-1.8-5.8-6.5-4.2-9.4l0.5-1c1-1.5,3.8-4.8,5.7-7.1l0.2,0.2c0.8,0.8,2.1,0.8,2.9,0l1.8-1.8
			c0.8-0.8,0.8-2.1,0-2.9l-7-7c-0.8-0.8-2.1-0.8-2.9,0l0,0l0,0l-1.8,1.8c-0.8,0.8-0.8,2.1,0,2.9l0.2,0.2l-8.3,6.9
			c0,0-8.8,8.1-12.7,18.1C16,46,14.6,54.3,15.6,55.5c1,1.2,2.5-0.3,3.7-3.7c1.2-3.4,2.7-7.3,6.4-11.6c3.4-3.8,5.2-4.5,7.4-3.5
			c0.6,0.2,3.5,2.1,5.3,3.6L46.1,32.6z"/>
		<path d="M49.7,94.6c0.5-0.7,1-1.3,1.5-1.9c8.2-10.1,9.6-7.9,13.8-12.3c6.6-7,11.6-16.2,10.4-20.4c-0.1-0.3-0.2-0.6-0.3-0.9
			c-0.3-0.5-0.6-1-1.1-1.4c-0.3-0.2-0.6-0.4-0.9-0.6c-0.4-0.2-0.7-0.3-1.1-0.3l-0.1-0.1c0.1-0.4,0.2-0.8,0.2-1.2
			c0-1.1-0.5-2.3-1.5-3.1c-0.3-0.3-0.6-0.4-1-0.6c-0.6-0.2-1.2-0.4-1.7-0.3c-0.2,0-0.3,0-0.5,0.1c0.1-0.5,0.1-1.1,0-1.6
			c-0.2-0.8-0.7-1.7-1.4-2.3c-0.2-0.1-0.6-0.3-1-0.5c-0.3-0.2-0.6-0.3-0.8-0.4l0,0c0-0.3,0-0.5-0.1-0.8c-0.2-0.8-0.7-1.6-1.4-2.2
			c-0.3-0.2-0.6-0.4-1-0.6c-0.6-0.2-1.2-0.4-1.8-0.3c-0.7,0-1.4,0.3-2,0.8c-0.2,0.1-0.3,0.3-0.4,0.4c-2.7,5.7-5.2,8.6-6.9,10
			c-0.8,0.6-1.4,0.8-2,0.8c-1.1,0.1-1.6-0.8-2.1-1.7c-0.5-0.9-0.9-1.7-1.8-1.7c-0.2,0-0.4,0.1-0.6,0.2c-2.8,1.3-2.7,8.9-2.7,8.9
			c1.3,8.7,0.2,10.6-3.5,16.3c-1.4,2.2-3.3,4-4.2,5.1c0,0-0.1,0.1-0.1,0.2L49.7,94.6z"/>
	</g>
</g>
<g id="Layer_7">
	<rect width="97.7" height="97.7"/>
</g>
<g id="carousel-show" class="st0">
	<rect x="19.8" y="19.8" class="st2" width="24.5" height="24.5"/>
	<rect x="53.4" y="19.8" class="st2" width="24.5" height="24.5"/>
	<rect x="19.8" y="53.4" class="st2" width="24.5" height="24.5"/>
	<rect x="53.4" y="53.4" class="st2" width="24.5" height="24.5"/>
</g>
<g id="carousel-hide">
	<rect x="19.8" y="19.8" class="st3" width="58.2" height="58.2"/>
</g>
</svg>
